Coordinates
version=1
nRows=29
nColumns=24
inDegrees=yes

Units are S.I. units (second, meters, Newtons, ...)
Angles are in degrees.

endheader
time	pelvis_tilt	pelvis_list	pelvis_rotation	pelvis_tx	pelvis_ty	pelvis_tz	hip_flexion_r	hip_adduction_r	hip_rotation_r	knee_angle_r	ankle_angle_r	subtalar_angle_r	mtp_angle_r	hip_flexion_l	hip_adduction_l	hip_rotation_l	knee_angle_l	ankle_angle_l	subtalar_angle_l	mtp_angle_l	lumbar_extension	lumbar_bending	lumbar_rotation
      1.13000000	     -6.46032225	     -6.40380191	     -9.88965348	     -0.68860086	      1.25909253	     -0.91301863	     -8.84940866	     11.58876080	     23.48002051	     -7.87350620	      9.90701541	     -0.65907177	      5.82332757	     33.52556800	     -4.61466406	      0.02765984	    -10.09013174	     -4.91320358	    -16.73252932	      6.98814720	     -6.20285043	     10.30872428	      6.06821724
      1.13500000	     -6.48819061	     -6.43261445	     -9.74265167	     -0.68299653	      1.25856920	     -0.91336692	     -8.95272839	     11.67604602	     23.20373053	     -8.35508425	      9.85463846	     -0.71125420	      5.97524955	     33.73359475	     -4.42616450	      0.59807469	    -10.86735698	     -5.43232417	    -16.94764148	      6.97029044	     -6.18226078	     10.21708581	      5.91856208
      1.14000000	     -6.47184733	     -6.45406890	     -9.56178909	     -0.67742528	      1.25817636	     -0.91380825	     -9.02475807	     11.75801550	     22.77493299	     -8.95793642	      9.87371740	     -0.47432900	      6.46046740	     33.84763948	     -4.18435376	      1.26867794	    -11.56426852	     -6.24057719	    -17.52916362	      6.80519477	     -6.21236215	     10.10641689	      5.76627480
      1.14500000	     -6.45915648	     -6.49169317	     -9.33163130	     -0.67183913	      1.25784137	     -0.91426746	     -9.08511530	     11.86792121	     22.33880106	     -9.55983976	      9.78953828	     -0.33442512	      6.95109568	     33.98453439	     -3.93437679	      1.95853694	    -12.31158346	     -6.95903027	    -17.90782353	      6.64252671	     -6.23418803	     10.00307995	      5.54959325
      1.15000000	     -6.43324185	     -6.53019434	     -9.06491931	     -0.66625568	      1.25760386	     -0.91475480	     -9.12289910	     11.98796415	     21.85941793	    -10.21000245	      9.64823431	     -0.20748665	      7.46645922	     34.09838465	     -3.66150744	      2.66912933	    -13.05144113	     -7.68205438	    -18.24637706	      6.46451931	     -6.26914342	      9.89356035	      5.30492512
      1.15500000	     -6.40971280	     -6.56424407	     -8.76626397	     -0.66065521	      1.25746988	     -0.91525060	     -9.11438278	     12.11570312	     21.32943303	    -10.91956941	      9.45548252	     -0.06505775	      8.04772370	     34.19959928	     -3.36689563	      3.39618277	    -13.77065874	     -8.41839412	    -18.56851109	      6.26546711	     -6.29144448	      9.76844998	      5.03919768
      1.16000000	     -6.40133292	     -6.59918252	     -8.22245667	     -0.65467710	      1.25730425	     -0.91603791	     -9.11970975	     12.23352115	     20.38334629	    -11.55097738	      9.21968966	      0.28486217	      8.70619469	     34.32557071	     -2.91017872	      4.37711129	    -14.48518720	     -9.17371306	    -18.95540688	      6.04023115	     -6.21053747	      9.64958709	      4.52631787
      1.16500000	     -6.38980688	     -6.64876632	     -7.63979200	     -0.64869969	      1.25722919	     -0.91686218	     -9.08402771	     12.37281155	     19.39282219	    -12.23815377	      8.90406907	      0.67105995	      9.38889658	     34.43675932	     -2.44390317	      5.38541977	    -15.19310570	     -9.87939073	    -19.31890377	      5.81441020	     -6.12571210	      9.54445095	      3.97974666
      1.17000000	     -6.37927598	     -6.72012834	     -7.03811991	     -0.64276976	      1.25726248	     -0.91769548	     -8.99351907	     12.54313271	     18.40475286	    -12.99436913	      8.48990768	      1.06148572	     10.06543328	     34.53515733	     -1.99154201	      6.40839681	    -15.89363056	    -10.49285522	    -19.60224467	      5.60910909	     -6.06007116	      9.45955048	      3.38627720
      1.17500000	     -6.35701064	     -6.76622072	     -6.39398260	     -0.63678463	      1.25739900	     -0.91853540	     -8.86197854	     12.68137361	     17.27847695	    -13.80852055	      8.04486648	      1.55845937	     10.87323766	     34.59263619	     -1.49646134	      7.40020541	    -16.55778143	    -11.11450874	    -19.88634758	      5.36169417	     -5.98243777	      9.32964459	      2.79713895
      1.18000000	     -6.33836018	     -6.84226663	     -5.73030132	     -0.63084097	      1.25761404	     -0.91939872	     -8.67006123	     12.85245953	     16.14168098	    -14.69404965	      7.48215825	      2.04903383	     11.61178748	     34.63990011	     -1.02333473	      8.41647321	    -17.21976900	    -11.55475371	    -20.07544739	      5.15119133	     -5.91587521	      9.23324919	      2.17373241
      1.18500000	     -6.31634779	     -6.91185068	     -5.03253300	     -0.62487873	      1.25790828	     -0.92026593	     -8.42410290	     13.00702699	     14.89721421	    -15.64406296	      6.86890641	      2.64340199	     12.39774146	     34.67444627	     -0.53383020	      9.38226075	    -17.88119754	    -11.97142999	    -20.22670932	      4.92171245	     -5.84128928	      9.12287872	      1.53105594
      1.19000000	     -6.29956699	     -6.97874813	     -4.32062964	     -0.61893042	      1.25830289	     -0.92114350	     -8.10189964	     13.14641508	     13.60314956	    -16.67438327	      6.14741403	      3.31887981	     13.24899925	     34.65716036	     -0.04511754	     10.36475394	    -18.45615688	    -12.30280590	    -20.31859894	      4.67606321	     -5.76782954	      9.01253107	      0.83099653
      1.19500000	     -6.28299752	     -7.05325006	     -3.58217130	     -0.61300578	      1.25874442	     -0.92203459	     -7.71690832	     13.27709452	     12.22630734	    -17.77551836	      5.33894606	      4.03916775	     14.05972415	     34.63606728	      0.44312795	     11.31767983	    -19.04147592	    -12.50836975	    -20.35565385	      4.44862968	     -5.69743507	      8.90363003	      0.12566229
      1.20000000	     -6.27424497	     -7.12628680	     -2.81770554	     -0.60706255	      1.25922769	     -0.92295978	     -7.26705338	     13.37778529	     10.75111002	    -18.93104899	      4.42416456	      4.83730792	     14.84744825	     34.59363050	      0.93958497	     12.27316075	    -19.59643080	    -12.61753210	    -20.34117092	      4.22873189	     -5.60793747	      8.79675849	     -0.61564741
      1.20500000	     -6.26871585	     -7.19549879	     -2.03539429	     -0.60115386	      1.25974537	     -0.92390638	     -6.75115842	     13.44385856	      9.20714129	    -20.15129019	      3.40697853	      5.68436528	     15.59033425	     34.53137739	      1.43976557	     13.20344887	    -20.12298708	    -12.63626602	    -20.28809115	      4.02365752	     -5.52330473	      8.68885905	     -1.37957706
      1.21000000	     -6.27873346	     -7.26154810	     -1.22810512	     -0.59523121	      1.26027492	     -0.92485830	     -6.17478638	     13.47104502	      7.57405839	    -21.40445634	      2.26706273	      6.53914302	     16.24932419	     34.47204898	      1.94729841	     14.10756319	    -20.64446052	    -12.55775166	    -20.20097477	      3.85780715	     -5.41009284	      8.57155034	     -2.18733685
      1.21500000	     -6.28302445	     -7.32210324	     -0.40392444	     -0.58934590	      1.26083048	     -0.92584460	     -5.55912440	     13.44927811	      5.88614568	    -22.69166195	      0.98335941	      7.39565617	     16.82679263	     34.37165969	      2.45822363	     15.00977640	    -21.11465294	    -12.41781390	    -20.07409912	      3.71738741	     -5.31073879	      8.45571428	     -3.01920434
      1.22000000	     -6.31817382	     -7.34597006	      0.41683056	     -0.58343444	      1.26141856	     -0.92685664	     -4.85716837	     13.32997331	      4.12135395	    -24.04086116	     -0.34614036	      8.39805578	     17.44120027	     34.22641742	      2.98991947	     15.91936693	    -21.46502102	    -12.25508905	    -19.94775194	      3.54119832	     -5.16579729	      8.29970419	     -3.82581132
      1.22500000	     -6.34497778	     -7.37963427	      1.25718261	     -0.57757327	      1.26200706	     -0.92789180	     -4.13283114	     13.17459306	      2.31410699	    -25.40565536	     -1.80142472	      9.30050608	     17.96438630	     34.07405536	      3.51333308	     16.79113552	    -21.82908461	    -12.05565390	    -19.80465069	      3.37509646	     -5.03952182	      8.16098355	     -4.67492798
      1.23000000	     -6.37627054	     -7.43086222	      2.12082996	     -0.57173964	      1.26258887	     -0.92895209	     -3.38924597	     12.99799421	      0.49162190	    -26.76070557	     -3.38015482	     10.00651503	     18.28784596	     33.91802476	      4.02373880	     17.65206259	    -22.19003712	    -11.75530479	    -19.64170158	      3.29153926	     -4.91205022	      8.04674401	     -5.59431359
      1.23500000	     -6.43190465	     -7.43757649	      2.96290346	     -0.56590798	      1.26317563	     -0.93003678	     -2.57055689	     12.69872460	     -1.38651992	    -28.19819270	     -4.91919499	     10.85994923	     18.55629745	     33.70894661	      4.55250148	     18.52213954	    -22.42838571	    -11.46755025	    -19.49072240	      3.16087008	     -4.75238075	      7.88326405	     -6.44245215
      1.24000000	     -6.48465876	     -7.48161103	      3.80658589	     -0.56014941	      1.26380492	     -0.93111126	     -1.74913166	     12.41199007	     -3.20340470	    -29.60238911	     -6.63375517	     11.33986492	     18.70350071	     33.48782929	      5.02685875	     19.36439692	    -22.64251772	    -11.20806479	    -19.28672214	      3.10987003	     -4.60911726	      7.76827635	     -7.31857185
      1.24500000	     -6.55287542	     -7.49232361	      4.65647785	     -0.55437932	      1.26433867	     -0.93223941	     -0.87820700	     12.00599817	     -5.11048761	    -31.09068515	     -8.13999153	     11.98108424	     18.73017658	     33.27748364	      5.54594789	     20.17844661	    -22.88419137	    -10.82469075	    -19.19967904	      2.99860656	     -4.44503296	      7.62091103	     -8.26153066
      1.25000000	     -6.62998331	     -7.51623992	      5.48796136	     -0.54867009	      1.26491219	     -0.93337896	      0.01175612	     11.57220678	     -6.95361586	    -32.57644687	     -9.67995068	     12.37830789	     18.62917209	     33.02310280	      6.02116012	     20.99461532	    -23.02186490	    -10.49397814	    -19.08506075	      2.89046183	     -4.28496097	      7.50079579	     -9.14595538
      1.25500000	     -6.71301603	     -7.54098234	      6.30575169	     -0.54300497	      1.26547553	     -0.93450750	      0.91514412	     11.09989225	     -8.73764111	    -34.06840509	    -11.15080829	     12.60336626	     18.41750395	     32.76346307	      6.48250874	     21.79923656	    -23.15086732	    -10.15928867	    -18.98246761	      2.78555264	     -4.12028751	      7.38099706	    -10.03929556
      1.26000000	     -6.82997447	     -7.55686633	      7.10262802	     -0.53735240	      1.26599591	     -0.93569642	      1.85877123	     10.55537632	    -10.48730497	    -35.59121250	    -12.46507980	     12.89239819	     17.56027876	     32.49150588	      6.94242764	     22.64016917	    -23.20720130	     -9.85398378	    -18.92301547	      2.51854102	     -3.91293127	      7.25623847	    -10.84078675
      1.26500000	     -6.90296857	     -7.60716748	      7.87678870	     -0.53178571	      1.26658662	     -0.93678459	      2.75407909	     10.05582894	    -12.11600498	    -37.05409173	    -13.76889358	     12.59022915	     17.28699281	     32.19200474	      7.32419966	     23.36176002	    -23.28155998	     -9.50473258	    -18.82699083	      2.46474130	     -3.78185288	      7.18179347	    -11.75909954
      1.27000000	     -7.05325675	     -7.65444409	      8.61265110	     -0.52622732	      1.26707697	     -0.93792739	      3.74425416	      9.48996140	    -13.68209770	    -38.56298711	    -14.85089260	     12.47112639	     16.11303182	     31.94360777	      7.70614902	     24.11350301	    -23.31162683	     -9.22493165	    -18.77541190	      2.20045072	     -3.55661203	      7.10663566	    -12.55778619
